<svg xmlns="http://www.w3.org/2000/svg" xmlns:xlink="http://www.w3.org/1999/xlink" width="170" zoomAndPan="magnify" viewBox="0 0 127.5 155.999997" height="208" preserveAspectRatio="xMidYMid meet" version="1.0"><defs><clipPath id="67c38405e2"><path d="M 0 0.304688 L 127 0.304688 L 127 155.695312 L 0 155.695312 Z M 0 0.304688 " clip-rule="nonzero"/></clipPath><clipPath id="7ddc6ed4c6"><path d="M 0 0.304688 L 126.941406 0.304688 L 126.941406 155.625 L 0 155.625 Z M 0 0.304688 " clip-rule="nonzero"/></clipPath><clipPath id="77abad9f3f"><path d="M 10.578125 86 L 116.613281 86 L 116.613281 141 L 10.578125 141 Z M 10.578125 86 " clip-rule="nonzero"/></clipPath><clipPath id="161891c07e"><path d="M 88 9.535156 L 106.980469 9.535156 L 106.980469 28 L 88 28 Z M 88 9.535156 " clip-rule="nonzero"/></clipPath><clipPath id="619acb9138"><path d="M 74.871094 27 L 87 27 L 87 39 L 74.871094 39 Z M 74.871094 27 " clip-rule="nonzero"/></clipPath><clipPath id="187ce786cb"><rect x="0" width="127" y="0" height="156"/></clipPath></defs><g clip-path="url(#67c38405e2)"><path fill="#ffffff" d="M 0 0.304688 L 127 0.304688 L 127 155.695312 L 0 155.695312 Z M 0 0.304688 " fill-opacity="1" fill-rule="nonzero"/><g transform="matrix(1, 0, 0, 1, 0, 0.000000000000001776)"><g clip-path="url(#187ce786cb)"><g clip-path="url(#7ddc6ed4c6)"><path fill="#ffffff" d="M 0 0.304688 L 126.941406 0.304688 L 126.941406 155.625 L 0 155.625 Z M 0 0.304688 " fill-opacity="1" fill-rule="nonzero"/></g><g clip-path="url(#77abad9f3f)"><path fill="#000000" d="M 112.363281 140.90625 L 14.742188 140.90625 C 12.445312 140.90625 10.578125 139.039062 10.578125 136.75 L 10.578125 113.171875 C 10.578125 105.480469 15.421875 98.527344 22.640625 95.867188 C 22.671875 95.867188 22.699219 95.839844 22.699219 95.839844 L 50.851562 86.738281 C 51.359375 86.566406 51.898438 86.652344 52.324219 86.964844 C 52.746094 87.273438 53.003906 87.753906 53.003906 88.292969 L 53.003906 90.160156 C 53.003906 95.980469 57.761719 100.730469 63.59375 100.730469 C 69.429688 100.730469 74.1875 95.980469 74.1875 90.160156 L 74.1875 88.292969 C 74.1875 87.785156 74.441406 87.273438 74.867188 86.964844 C 75.292969 86.652344 75.828125 86.566406 76.339844 86.738281 L 104.492188 95.8125 C 104.519531 95.8125 104.546875 95.839844 104.546875 95.839844 C 111.769531 98.5 116.613281 105.480469 116.613281 113.144531 L 116.613281 136.71875 C 116.554688 139.039062 114.6875 140.90625 112.363281 140.90625 Z M 23.71875 98.921875 C 17.800781 101.128906 13.804688 106.839844 13.804688 113.171875 L 13.804688 136.75 C 13.804688 137.257812 14.203125 137.652344 14.710938 137.652344 L 112.363281 137.652344 C 112.875 137.652344 113.269531 137.257812 113.269531 136.75 L 113.269531 113.171875 C 113.269531 106.867188 109.304688 101.128906 103.359375 98.921875 L 77.386719 90.527344 C 77.1875 97.988281 71.042969 103.984375 63.539062 103.984375 C 56.03125 103.984375 49.886719 97.960938 49.6875 90.496094 Z M 23.71875 98.921875 " fill-opacity="1" fill-rule="nonzero"/></g><path fill="#000000" d="M 63.566406 140.90625 C 62.914062 140.90625 62.320312 140.507812 62.066406 139.914062 L 41.164062 91.742188 C 40.796875 90.921875 41.191406 89.960938 42.015625 89.59375 C 42.835938 89.226562 43.796875 89.621094 44.167969 90.441406 L 63.566406 135.164062 L 82.964844 90.441406 C 83.335938 89.621094 84.296875 89.226562 85.117188 89.59375 C 85.941406 89.960938 86.335938 90.921875 85.96875 91.742188 L 65.039062 139.914062 C 64.785156 140.507812 64.21875 140.90625 63.566406 140.90625 Z M 63.566406 140.90625 " fill-opacity="1" fill-rule="nonzero"/><path fill="#000000" d="M 96.84375 124.535156 L 93.730469 124.535156 C 92.824219 124.535156 92.085938 123.800781 92.085938 122.894531 C 92.085938 121.992188 92.824219 121.257812 93.730469 121.257812 L 95.203125 121.257812 L 95.203125 116.675781 C 95.203125 113.285156 92.453125 110.542969 89.054688 110.542969 C 85.65625 110.542969 82.910156 113.285156 82.910156 116.675781 L 82.910156 121.257812 L 84.382812 121.257812 C 85.289062 121.257812 86.023438 121.992188 86.023438 122.894531 C 86.023438 123.800781 85.289062 124.535156 84.382812 124.535156 L 81.265625 124.535156 C 80.359375 124.535156 79.625 123.800781 79.625 122.894531 L 79.625 116.675781 C 79.625 111.503906 83.84375 107.261719 89.054688 107.261719 C 94.265625 107.261719 98.488281 111.472656 98.488281 116.675781 L 98.488281 122.894531 C 98.488281 123.800781 97.75 124.535156 96.84375 124.535156 Z M 96.84375 124.535156 " fill-opacity="1" fill-rule="nonzero"/><path fill="#000000" d="M 89.082031 110.542969 C 88.175781 110.542969 87.441406 109.804688 87.441406 108.902344 L 87.441406 92.589844 C 87.441406 91.683594 88.175781 90.949219 89.082031 90.949219 C 89.992188 90.949219 90.726562 91.683594 90.726562 92.589844 L 90.726562 108.902344 C 90.699219 109.804688 89.960938 110.542969 89.082031 110.542969 Z M 89.082031 110.542969 " fill-opacity="1" fill-rule="nonzero"/><path fill="#000000" d="M 36.492188 111.617188 C 35.585938 111.617188 34.847656 110.882812 34.847656 109.976562 L 34.847656 93.097656 C 34.847656 92.195312 35.585938 91.457031 36.492188 91.457031 C 37.398438 91.457031 38.132812 92.195312 38.132812 93.097656 L 38.132812 109.976562 C 38.132812 110.882812 37.398438 111.617188 36.492188 111.617188 Z M 36.492188 111.617188 " fill-opacity="1" fill-rule="nonzero"/><path fill="#000000" d="M 36.492188 124.054688 C 32.15625 124.054688 28.617188 120.519531 28.617188 116.195312 C 28.617188 111.871094 32.15625 108.335938 36.492188 108.335938 C 40.824219 108.335938 44.363281 111.871094 44.363281 116.195312 C 44.363281 120.519531 40.824219 124.054688 36.492188 124.054688 Z M 36.492188 111.617188 C 33.972656 111.617188 31.902344 113.679688 31.902344 116.195312 C 31.902344 118.710938 33.972656 120.777344 36.492188 120.777344 C 39.011719 120.777344 41.078125 118.710938 41.078125 116.195312 C 41.078125 113.679688 39.011719 111.617188 36.492188 111.617188 Z M 36.492188 111.617188 " fill-opacity="1" fill-rule="nonzero"/><path fill="#000000" d="M 87.46875 51.738281 C 87.242188 51.738281 87.015625 51.679688 86.816406 51.597656 C 85.996094 51.230469 85.628906 50.269531 85.96875 49.449219 C 89.226562 42.042969 92.3125 28.554688 76.480469 21.542969 C 70.816406 19.027344 64.5 18.207031 58.269531 19.171875 C 50.511719 20.359375 41.109375 24.003906 40.511719 34.519531 C 40.484375 34.804688 40.398438 35.085938 40.230469 35.339844 C 40.089844 35.679688 38.132812 40.742188 41.109375 48.121094 C 41.449219 48.96875 41.050781 49.902344 40.203125 50.238281 C 39.351562 50.578125 38.417969 50.183594 38.078125 49.335938 C 35.105469 41.929688 36.351562 36.019531 37.257812 34.011719 C 37.679688 28.386719 40.171875 23.949219 44.734375 20.753906 C 48.074219 18.40625 52.464844 16.796875 57.761719 15.976562 C 64.613281 14.929688 71.523438 15.835938 77.785156 18.605469 C 96.871094 27.058594 91.945312 43.933594 88.941406 50.777344 C 88.714844 51.371094 88.121094 51.738281 87.46875 51.738281 Z M 40.230469 35.339844 C 40.203125 35.371094 40.203125 35.398438 40.171875 35.425781 C 40.203125 35.398438 40.230469 35.398438 40.230469 35.339844 Z M 40.230469 35.339844 " fill-opacity="1" fill-rule="nonzero"/><path fill="#000000" d="M 63.566406 83.117188 C 49.460938 83.117188 38.019531 71.667969 38.019531 57.617188 L 38.019531 48.714844 C 38.019531 48.007812 38.472656 47.382812 39.152344 47.160156 C 41.617188 46.394531 49.800781 43.371094 52.324219 36.445312 C 52.492188 35.964844 52.890625 35.59375 53.371094 35.453125 C 53.851562 35.3125 54.390625 35.398438 54.816406 35.707031 C 54.984375 35.820312 72.347656 48.429688 87.496094 48.515625 C 88.402344 48.515625 89.113281 49.25 89.113281 50.15625 L 89.113281 57.648438 C 89.113281 71.667969 77.640625 83.117188 63.566406 83.117188 Z M 41.25 49.871094 L 41.25 57.589844 C 41.25 69.859375 51.246094 79.839844 63.539062 79.839844 C 75.828125 79.839844 85.828125 69.859375 85.828125 57.589844 L 85.828125 51.679688 C 72.742188 50.945312 59.148438 42.578125 54.503906 39.441406 C 51.386719 45.519531 44.929688 48.570312 41.25 49.871094 Z M 41.25 49.871094 " fill-opacity="1" fill-rule="nonzero"/><path fill="#000000" d="M 40.203125 64.460938 C 40.144531 64.460938 40.089844 64.460938 40.003906 64.460938 C 39.945312 64.460938 39.863281 64.460938 39.75 64.433594 C 39.378906 64.402344 39.296875 64.402344 39.210938 64.375 C 35.300781 63.726562 32.46875 60.390625 32.46875 56.429688 C 32.46875 54.425781 33.207031 52.5 34.566406 51.03125 C 34.792969 50.804688 35.019531 50.578125 35.246094 50.382812 C 36.40625 49.363281 37.851562 48.714844 39.378906 48.488281 C 40.285156 48.34375 41.109375 48.96875 41.222656 49.871094 C 41.335938 50.777344 40.738281 51.597656 39.832031 51.710938 C 38.925781 51.851562 38.078125 52.21875 37.398438 52.839844 C 37.257812 52.953125 37.113281 53.09375 36.972656 53.238281 C 36.179688 54.113281 35.726562 55.242188 35.726562 56.460938 C 35.726562 58.804688 37.398438 60.785156 39.691406 61.179688 C 39.777344 61.179688 39.890625 61.207031 40.003906 61.207031 C 40.203125 61.238281 40.371094 61.238281 40.398438 61.238281 C 41.304688 61.351562 41.929688 62.171875 41.789062 63.074219 C 41.703125 63.867188 41.023438 64.460938 40.203125 64.460938 Z M 40.203125 64.460938 " fill-opacity="1" fill-rule="nonzero"/><path fill="#000000" d="M 86.875 64.515625 C 86.082031 64.515625 85.375 63.921875 85.261719 63.101562 C 85.148438 62.199219 85.769531 61.378906 86.648438 61.265625 C 86.761719 61.238281 87.328125 61.152344 87.382812 61.125 C 89.679688 60.726562 91.320312 58.75 91.320312 56.402344 C 91.320312 55.214844 90.867188 54.054688 90.074219 53.179688 C 89.933594 53.039062 89.792969 52.898438 89.648438 52.785156 C 88.96875 52.191406 88.121094 51.792969 87.214844 51.652344 C 86.335938 51.511719 85.714844 50.691406 85.828125 49.816406 C 85.941406 48.9375 86.789062 48.316406 87.667969 48.429688 C 89.195312 48.65625 90.613281 49.308594 91.773438 50.324219 C 92 50.523438 92.226562 50.75 92.453125 50.976562 C 93.8125 52.445312 94.550781 54.367188 94.550781 56.402344 C 94.550781 60.304688 91.773438 63.640625 87.921875 64.320312 C 87.835938 64.347656 87.128906 64.460938 87.042969 64.460938 C 87.015625 64.515625 86.960938 64.515625 86.875 64.515625 Z M 86.875 64.515625 " fill-opacity="1" fill-rule="nonzero"/><path fill="#000000" d="M 63.566406 104.011719 C 55.917969 104.011719 49.71875 97.820312 49.71875 90.1875 L 49.71875 78.113281 C 49.71875 77.519531 50.027344 76.984375 50.539062 76.703125 C 51.046875 76.417969 51.671875 76.417969 52.179688 76.730469 C 55.636719 78.792969 59.574219 79.867188 63.566406 79.867188 C 67.558594 79.867188 71.496094 78.792969 74.953125 76.730469 C 75.460938 76.417969 76.085938 76.417969 76.59375 76.703125 C 77.105469 76.984375 77.414062 77.519531 77.414062 78.113281 L 77.414062 90.160156 C 77.414062 97.792969 71.183594 104.011719 63.566406 104.011719 Z M 52.972656 80.800781 L 52.972656 90.160156 C 52.972656 95.980469 57.730469 100.730469 63.566406 100.730469 C 69.402344 100.730469 74.160156 95.980469 74.160156 90.160156 L 74.160156 80.773438 C 70.84375 82.300781 67.21875 83.089844 63.566406 83.089844 C 59.882812 83.117188 56.289062 82.328125 52.972656 80.800781 Z M 52.972656 80.800781 " fill-opacity="1" fill-rule="nonzero"/><g clip-path="url(#161891c07e)"><path fill="#000000" d="M 96.542969 9.542969 L 99.234375 9.542969 C 99.726562 9.542969 100.171875 9.746094 100.496094 10.066406 L 100.515625 10.089844 C 100.828125 10.414062 101.019531 10.847656 101.019531 11.328125 L 101.019531 15.304688 L 104.996094 15.304688 C 105.488281 15.304688 105.933594 15.503906 106.257812 15.828125 C 106.582031 16.152344 106.78125 16.597656 106.78125 17.089844 L 106.78125 19.78125 C 106.78125 20.273438 106.582031 20.71875 106.257812 21.042969 L 106.234375 21.066406 C 105.914062 21.375 105.476562 21.566406 104.996094 21.566406 L 101.019531 21.566406 L 101.019531 25.542969 C 101.019531 26.035156 100.820312 26.480469 100.496094 26.804688 C 100.171875 27.128906 99.726562 27.328125 99.234375 27.328125 L 96.542969 27.328125 C 96.054688 27.328125 95.605469 27.128906 95.28125 26.804688 C 94.960938 26.480469 94.757812 26.035156 94.757812 25.542969 L 94.757812 21.566406 L 90.78125 21.566406 C 90.292969 21.566406 89.847656 21.367188 89.523438 21.042969 L 89.519531 21.042969 C 89.199219 20.71875 88.996094 20.273438 88.996094 19.78125 L 88.996094 17.089844 C 88.996094 16.597656 89.199219 16.152344 89.519531 15.828125 C 89.84375 15.503906 90.289062 15.304688 90.78125 15.304688 L 94.757812 15.304688 L 94.757812 11.328125 C 94.757812 10.839844 94.960938 10.390625 95.28125 10.066406 L 95.304688 10.046875 C 95.628906 9.734375 96.0625 9.542969 96.542969 9.542969 Z M 99.234375 10.316406 L 96.542969 10.316406 C 96.273438 10.316406 96.023438 10.421875 95.84375 10.59375 L 95.828125 10.613281 C 95.640625 10.796875 95.527344 11.050781 95.527344 11.328125 L 95.527344 15.691406 C 95.527344 15.902344 95.355469 16.074219 95.144531 16.074219 L 90.78125 16.074219 C 90.503906 16.074219 90.25 16.191406 90.066406 16.375 C 89.882812 16.558594 89.765625 16.8125 89.765625 17.089844 L 89.765625 19.78125 C 89.765625 20.0625 89.882812 20.316406 90.066406 20.5 C 90.25 20.683594 90.503906 20.796875 90.78125 20.796875 L 95.144531 20.796875 C 95.355469 20.796875 95.527344 20.96875 95.527344 21.183594 L 95.527344 25.542969 C 95.527344 25.824219 95.640625 26.078125 95.828125 26.261719 C 96.007812 26.445312 96.261719 26.558594 96.542969 26.558594 L 99.234375 26.558594 C 99.515625 26.558594 99.769531 26.445312 99.953125 26.261719 C 100.136719 26.078125 100.25 25.824219 100.25 25.542969 L 100.25 21.183594 C 100.25 20.96875 100.421875 20.796875 100.636719 20.796875 L 104.996094 20.796875 C 105.269531 20.796875 105.515625 20.6875 105.699219 20.515625 L 105.714844 20.5 C 105.898438 20.316406 106.011719 20.0625 106.011719 19.78125 L 106.011719 17.089844 C 106.011719 16.8125 105.898438 16.558594 105.714844 16.375 C 105.527344 16.191406 105.277344 16.074219 104.996094 16.074219 L 100.636719 16.074219 C 100.421875 16.074219 100.25 15.902344 100.25 15.691406 L 100.25 11.328125 C 100.25 11.058594 100.144531 10.8125 99.96875 10.628906 L 99.953125 10.613281 C 99.769531 10.429688 99.515625 10.316406 99.234375 10.316406 Z M 99.234375 10.316406 " fill-opacity="1" fill-rule="nonzero"/></g><g clip-path="url(#619acb9138)"><path fill="#000000" d="M 79.835938 27.304688 L 81.554688 27.304688 C 81.910156 27.304688 82.230469 27.445312 82.460938 27.679688 C 82.691406 27.910156 82.835938 28.230469 82.835938 28.582031 L 82.835938 30.984375 L 85.238281 30.984375 C 85.59375 30.984375 85.914062 31.128906 86.144531 31.363281 C 86.375 31.59375 86.519531 31.914062 86.519531 32.265625 L 86.519531 33.988281 C 86.519531 34.339844 86.375 34.660156 86.144531 34.890625 C 85.914062 35.125 85.59375 35.265625 85.238281 35.265625 L 82.835938 35.265625 L 82.835938 37.671875 C 82.835938 38.023438 82.691406 38.34375 82.460938 38.574219 C 82.230469 38.808594 81.910156 38.949219 81.554688 38.949219 L 79.835938 38.949219 C 79.480469 38.949219 79.160156 38.808594 78.929688 38.574219 C 78.699219 38.34375 78.554688 38.023438 78.554688 37.671875 L 78.554688 35.265625 L 76.152344 35.265625 C 75.796875 35.265625 75.476562 35.125 75.246094 34.890625 C 75.015625 34.660156 74.871094 34.339844 74.871094 33.988281 L 74.871094 32.265625 C 74.871094 31.914062 75.015625 31.59375 75.246094 31.363281 C 75.476562 31.128906 75.796875 30.984375 76.152344 30.984375 L 78.554688 30.984375 L 78.554688 28.582031 C 78.554688 28.230469 78.699219 27.910156 78.929688 27.679688 C 79.160156 27.445312 79.480469 27.304688 79.835938 27.304688 Z M 81.554688 28.070312 L 79.835938 28.070312 C 79.695312 28.070312 79.566406 28.128906 79.476562 28.222656 C 79.382812 28.316406 79.324219 28.441406 79.324219 28.582031 L 79.324219 31.371094 C 79.324219 31.582031 79.152344 31.757812 78.941406 31.757812 L 76.152344 31.757812 C 76.011719 31.757812 75.882812 31.8125 75.792969 31.90625 C 75.699219 32 75.640625 32.125 75.640625 32.265625 L 75.640625 33.988281 C 75.640625 34.128906 75.699219 34.253906 75.792969 34.347656 C 75.882812 34.4375 76.011719 34.496094 76.152344 34.496094 L 78.941406 34.496094 C 79.152344 34.496094 79.324219 34.667969 79.324219 34.882812 L 79.324219 37.671875 C 79.324219 37.8125 79.382812 37.9375 79.476562 38.03125 C 79.566406 38.121094 79.695312 38.179688 79.835938 38.179688 L 81.554688 38.179688 C 81.695312 38.179688 81.824219 38.121094 81.914062 38.03125 C 82.007812 37.9375 82.066406 37.8125 82.066406 37.671875 L 82.066406 34.882812 C 82.066406 34.667969 82.238281 34.496094 82.449219 34.496094 L 85.238281 34.496094 C 85.378906 34.496094 85.507812 34.4375 85.597656 34.347656 C 85.691406 34.253906 85.75 34.128906 85.75 33.988281 L 85.75 32.265625 C 85.75 32.125 85.691406 32 85.597656 31.90625 C 85.507812 31.8125 85.378906 31.757812 85.238281 31.757812 L 82.449219 31.757812 C 82.238281 31.757812 82.066406 31.582031 82.066406 31.371094 L 82.066406 28.582031 C 82.066406 28.441406 82.007812 28.316406 81.914062 28.222656 C 81.824219 28.128906 81.695312 28.070312 81.554688 28.070312 Z M 81.554688 28.070312 " fill-opacity="1" fill-rule="nonzero"/></g><path fill="#000000" d="M 99.179688 36.914062 L 100.460938 36.914062 C 100.75 36.914062 101.011719 37.035156 101.203125 37.226562 L 101.203125 37.222656 C 101.394531 37.414062 101.511719 37.679688 101.511719 37.96875 L 101.511719 39.65625 L 103.203125 39.65625 C 103.492188 39.65625 103.757812 39.773438 103.945312 39.964844 L 103.96875 39.992188 C 104.144531 40.179688 104.253906 40.433594 104.253906 40.710938 L 104.253906 41.988281 C 104.253906 42.277344 104.136719 42.542969 103.945312 42.734375 C 103.757812 42.921875 103.492188 43.042969 103.203125 43.042969 L 101.511719 43.042969 L 101.511719 44.730469 C 101.511719 45.019531 101.394531 45.285156 101.203125 45.472656 C 101.015625 45.664062 100.75 45.785156 100.460938 45.785156 L 99.179688 45.785156 C 98.890625 45.785156 98.628906 45.664062 98.4375 45.472656 L 98.414062 45.449219 C 98.238281 45.261719 98.128906 45.007812 98.128906 44.730469 L 98.128906 43.042969 L 96.4375 43.042969 C 96.148438 43.042969 95.886719 42.921875 95.695312 42.734375 L 95.671875 42.707031 C 95.496094 42.515625 95.386719 42.265625 95.386719 41.988281 L 95.386719 40.710938 C 95.386719 40.417969 95.503906 40.15625 95.695312 39.964844 C 95.886719 39.773438 96.148438 39.65625 96.4375 39.65625 L 98.128906 39.65625 L 98.128906 37.96875 C 98.128906 37.679688 98.246094 37.414062 98.4375 37.226562 L 98.441406 37.222656 C 98.628906 37.035156 98.890625 36.914062 99.179688 36.914062 Z M 100.460938 37.683594 L 99.179688 37.683594 C 99.101562 37.683594 99.03125 37.71875 98.980469 37.765625 L 98.980469 37.769531 C 98.929688 37.820312 98.898438 37.890625 98.898438 37.96875 L 98.898438 40.042969 C 98.898438 40.253906 98.726562 40.425781 98.515625 40.425781 L 96.4375 40.425781 C 96.359375 40.425781 96.292969 40.460938 96.238281 40.511719 C 96.1875 40.5625 96.15625 40.632812 96.15625 40.710938 L 96.15625 41.988281 C 96.15625 42.0625 96.183594 42.125 96.226562 42.175781 L 96.242188 42.1875 C 96.292969 42.238281 96.359375 42.273438 96.4375 42.273438 L 98.515625 42.273438 C 98.726562 42.273438 98.898438 42.445312 98.898438 42.65625 L 98.898438 44.730469 C 98.898438 44.804688 98.925781 44.867188 98.96875 44.917969 L 98.980469 44.929688 C 99.03125 44.980469 99.101562 45.011719 99.179688 45.011719 L 100.460938 45.011719 C 100.539062 45.011719 100.609375 44.980469 100.660156 44.929688 C 100.710938 44.878906 100.742188 44.808594 100.742188 44.730469 L 100.742188 42.65625 C 100.742188 42.445312 100.914062 42.273438 101.128906 42.273438 L 103.203125 42.273438 C 103.28125 42.273438 103.351562 42.238281 103.402344 42.1875 C 103.453125 42.136719 103.484375 42.066406 103.484375 41.988281 L 103.484375 40.710938 C 103.484375 40.636719 103.457031 40.574219 103.414062 40.523438 L 103.402344 40.511719 C 103.351562 40.460938 103.28125 40.425781 103.203125 40.425781 L 101.128906 40.425781 C 100.914062 40.425781 100.742188 40.253906 100.742188 40.042969 L 100.742188 37.96875 C 100.742188 37.890625 100.710938 37.820312 100.660156 37.769531 L 100.660156 37.765625 C 100.609375 37.71875 100.539062 37.683594 100.460938 37.683594 Z M 100.460938 37.683594 " fill-opacity="1" fill-rule="nonzero"/></g></g></g></svg>